<mxfile host="app.diagrams.net" agent="Mozilla/5.0 (Windows NT 10.0; Win64; x64) AppleWebKit/537.36 (KHTML, like Gecko) Chrome/129.0.0.0 Safari/537.36" version="24.7.17">
  <diagram name="Page-1" id="LmVQHwG75cEtfQcHDb-z">
    <mxGraphModel dx="1434" dy="772" grid="1" gridSize="10" guides="1" tooltips="1" connect="1" arrows="1" fold="1" page="1" pageScale="1" pageWidth="850" pageHeight="1100" math="0" shadow="0">
      <root>
        <mxCell id="0" />
        <mxCell id="1" parent="0" />
        <mxCell id="Jv4hPEEGpZePyray_T7o-7" value="" style="edgeStyle=orthogonalEdgeStyle;rounded=0;orthogonalLoop=1;jettySize=auto;html=1;" edge="1" parent="1" source="Jv4hPEEGpZePyray_T7o-1" target="Jv4hPEEGpZePyray_T7o-4">
          <mxGeometry relative="1" as="geometry" />
        </mxCell>
        <mxCell id="Jv4hPEEGpZePyray_T7o-1" value="BEGIN" style="rounded=1;whiteSpace=wrap;html=1;" vertex="1" parent="1">
          <mxGeometry x="300" y="70" width="120" height="60" as="geometry" />
        </mxCell>
        <mxCell id="Jv4hPEEGpZePyray_T7o-10" value="" style="edgeStyle=orthogonalEdgeStyle;rounded=0;orthogonalLoop=1;jettySize=auto;html=1;" edge="1" parent="1" source="Jv4hPEEGpZePyray_T7o-4" target="Jv4hPEEGpZePyray_T7o-9">
          <mxGeometry relative="1" as="geometry" />
        </mxCell>
        <mxCell id="Jv4hPEEGpZePyray_T7o-4" value="BAKE A CAKE" style="rounded=0;whiteSpace=wrap;html=1;" vertex="1" parent="1">
          <mxGeometry x="300" y="220" width="120" height="60" as="geometry" />
        </mxCell>
        <mxCell id="Jv4hPEEGpZePyray_T7o-12" value="" style="edgeStyle=orthogonalEdgeStyle;rounded=0;orthogonalLoop=1;jettySize=auto;html=1;" edge="1" parent="1" source="Jv4hPEEGpZePyray_T7o-9" target="Jv4hPEEGpZePyray_T7o-11">
          <mxGeometry relative="1" as="geometry" />
        </mxCell>
        <mxCell id="Jv4hPEEGpZePyray_T7o-9" value="GATHER THE INCREDIENTS" style="rounded=0;whiteSpace=wrap;html=1;" vertex="1" parent="1">
          <mxGeometry x="300" y="390" width="120" height="60" as="geometry" />
        </mxCell>
        <mxCell id="Jv4hPEEGpZePyray_T7o-14" value="" style="edgeStyle=orthogonalEdgeStyle;rounded=0;orthogonalLoop=1;jettySize=auto;html=1;" edge="1" parent="1" source="Jv4hPEEGpZePyray_T7o-11" target="Jv4hPEEGpZePyray_T7o-13">
          <mxGeometry relative="1" as="geometry" />
        </mxCell>
        <mxCell id="Jv4hPEEGpZePyray_T7o-11" value="PREHEAL THE OVEN" style="rounded=0;whiteSpace=wrap;html=1;" vertex="1" parent="1">
          <mxGeometry x="300" y="560" width="120" height="60" as="geometry" />
        </mxCell>
        <mxCell id="Jv4hPEEGpZePyray_T7o-18" value="" style="edgeStyle=orthogonalEdgeStyle;rounded=0;orthogonalLoop=1;jettySize=auto;html=1;" edge="1" parent="1" source="Jv4hPEEGpZePyray_T7o-13" target="Jv4hPEEGpZePyray_T7o-15">
          <mxGeometry relative="1" as="geometry" />
        </mxCell>
        <mxCell id="Jv4hPEEGpZePyray_T7o-13" value="MAKE THE DOUGH" style="rounded=0;whiteSpace=wrap;html=1;" vertex="1" parent="1">
          <mxGeometry x="300" y="720" width="120" height="60" as="geometry" />
        </mxCell>
        <mxCell id="Jv4hPEEGpZePyray_T7o-20" value="" style="edgeStyle=orthogonalEdgeStyle;rounded=0;orthogonalLoop=1;jettySize=auto;html=1;" edge="1" parent="1" source="Jv4hPEEGpZePyray_T7o-15" target="Jv4hPEEGpZePyray_T7o-19">
          <mxGeometry relative="1" as="geometry" />
        </mxCell>
        <mxCell id="Jv4hPEEGpZePyray_T7o-27" value="" style="edgeStyle=orthogonalEdgeStyle;rounded=0;orthogonalLoop=1;jettySize=auto;html=1;" edge="1" parent="1" source="Jv4hPEEGpZePyray_T7o-15" target="Jv4hPEEGpZePyray_T7o-26">
          <mxGeometry relative="1" as="geometry" />
        </mxCell>
        <mxCell id="Jv4hPEEGpZePyray_T7o-15" value="OVEN IS READY" style="rhombus;whiteSpace=wrap;html=1;" vertex="1" parent="1">
          <mxGeometry x="220" y="850" width="100" height="100" as="geometry" />
        </mxCell>
        <mxCell id="Jv4hPEEGpZePyray_T7o-30" style="edgeStyle=orthogonalEdgeStyle;rounded=0;orthogonalLoop=1;jettySize=auto;html=1;entryX=0;entryY=0.5;entryDx=0;entryDy=0;" edge="1" parent="1" source="Jv4hPEEGpZePyray_T7o-19" target="Jv4hPEEGpZePyray_T7o-15">
          <mxGeometry relative="1" as="geometry">
            <Array as="points">
              <mxPoint x="190" y="1030" />
              <mxPoint x="190" y="900" />
            </Array>
          </mxGeometry>
        </mxCell>
        <mxCell id="Jv4hPEEGpZePyray_T7o-31" value="NO" style="edgeLabel;html=1;align=center;verticalAlign=middle;resizable=0;points=[];" vertex="1" connectable="0" parent="Jv4hPEEGpZePyray_T7o-30">
          <mxGeometry x="-0.2222" y="-5" relative="1" as="geometry">
            <mxPoint as="offset" />
          </mxGeometry>
        </mxCell>
        <mxCell id="Jv4hPEEGpZePyray_T7o-19" value="WAIT" style="whiteSpace=wrap;html=1;" vertex="1" parent="1">
          <mxGeometry x="210" y="1000" width="120" height="60" as="geometry" />
        </mxCell>
        <mxCell id="Jv4hPEEGpZePyray_T7o-26" value="PUT THE CAKE IN THE OVEN" style="whiteSpace=wrap;html=1;" vertex="1" parent="1">
          <mxGeometry x="390" y="870" width="120" height="60" as="geometry" />
        </mxCell>
        <mxCell id="Jv4hPEEGpZePyray_T7o-29" value="YES" style="text;html=1;align=center;verticalAlign=middle;resizable=0;points=[];autosize=1;strokeColor=none;fillColor=none;" vertex="1" parent="1">
          <mxGeometry x="285" y="848" width="50" height="30" as="geometry" />
        </mxCell>
      </root>
    </mxGraphModel>
  </diagram>
</mxfile>
